<svg width="160" height="48" viewBox="0 0 160 48" fill="none" xmlns="http://www.w3.org/2000/svg">
<g clip-path="url(#clip0)">
<path fill-rule="evenodd" clip-rule="evenodd" d="M154.072 47.2129H5.92811C2.66088 47.2129 0 44.552 0 41.3113V5.90162C0 2.6491 2.66088 0 5.92811 0H154.072C157.336 0 160 2.6491 160 5.90162V41.3113C160 44.552 157.336 47.2129 154.072 47.2129Z" fill="black"/>
<path fill-rule="evenodd" clip-rule="evenodd" d="M154.072 0.944847C156.812 0.944847 159.055 3.17304 159.055 5.90162V41.3113C159.055 44.0399 156.827 46.2681 154.072 46.2681H5.92811C3.18776 46.2681 0.944847 44.0399 0.944847 41.3113V5.90162C0.944847 3.17304 3.17304 0.944847 5.92811 0.944847C5.92811 0.944847 154.072 0.944847 154.072 0.944847ZM154.072 0H5.92811C2.66088 0 0 2.66088 0 5.90162V41.3113C0 44.5638 2.66088 47.2129 5.92811 47.2129H154.072C157.336 47.2129 160 44.5638 160 41.3113V5.90162C160 2.66088 157.336 0 154.072 0Z" fill="#A6A6A6"/>
<path d="M84.2885 15.6182C83.22 15.6182 82.3193 15.2444 81.607 14.5085C80.9006 13.7933 80.5062 12.8072 80.5238 11.8005C80.5238 10.7262 80.8888 9.81667 81.607 9.09552C82.3164 8.35966 83.2171 7.98584 84.2856 7.98584C85.3422 7.98584 86.2429 8.35966 86.967 9.09552C87.6852 9.84021 88.0502 10.7497 88.0502 11.8005C88.0384 12.8779 87.6735 13.7874 86.967 14.5056C86.2577 15.2473 85.357 15.6182 84.2885 15.6182ZM52.4963 15.6182C51.4514 15.6182 50.5448 15.2503 49.803 14.5232C49.0672 13.7992 48.6934 12.8837 48.6934 11.8035C48.6934 10.7232 49.0672 9.80784 49.803 9.08375C50.5301 8.35671 51.4367 7.98878 52.4963 7.98878C53.0143 7.98878 53.5177 8.0918 54.0004 8.30079C54.4743 8.50389 54.8599 8.78057 55.1454 9.11907L55.216 9.20443L54.4184 9.98739L54.336 9.89025C53.8856 9.35454 53.2822 9.09258 52.4845 9.09258C51.7722 9.09258 51.1511 9.34571 50.639 9.8461C50.1239 10.3494 49.8619 11.0088 49.8619 11.8064C49.8619 12.6041 50.1239 13.2634 50.639 13.7668C51.1511 14.2672 51.7722 14.5203 52.4845 14.5203C53.2439 14.5203 53.8827 14.2672 54.3801 13.7668C54.6744 13.4724 54.8569 13.0603 54.9217 12.5394H52.3638V11.4385H56.0196L56.0343 11.5386C56.0608 11.724 56.0873 11.9153 56.0873 12.092C56.0873 13.1074 55.7812 13.9287 55.1748 14.535C54.4861 15.2532 53.5854 15.6182 52.4963 15.6182ZM94.7672 15.4622H93.6398L90.1872 9.93735L90.2166 10.9322V15.4593H89.0893V8.14479H90.3755L90.4109 8.20071L93.6575 13.4047L93.6281 12.4128V8.14479H94.7672V15.4622V15.4622ZM75.8172 15.4622H74.6752V9.24564H72.6942V8.14479H77.7952V9.24564H75.8143V15.4622H75.8172ZM71.7641 15.4622H70.625V8.14479H71.7641V15.4622ZM65.3621 15.4622H64.223V9.24564H62.2421V8.14479H67.3431V9.24564H65.3621V15.4622ZM61.5209 15.4504H57.1528V8.14479H61.5209V9.24564H58.2949V11.2531H61.206V12.3421H58.2949V14.3496H61.5209V15.4504ZM82.4429 13.7521C82.9522 14.2613 83.5703 14.5174 84.2885 14.5174C85.0273 14.5174 85.6307 14.2672 86.134 13.7521C86.6344 13.2517 86.8876 12.5953 86.8876 11.8035C86.8876 11.0117 86.6344 10.3524 86.137 9.85493C85.6278 9.34571 85.0067 9.08963 84.2914 9.08963C83.5526 9.08963 82.9492 9.33983 82.4488 9.85493C81.9485 10.3553 81.6953 11.0117 81.6953 11.8035C81.6953 12.5953 81.9455 13.2546 82.4429 13.7521Z" fill="white"/>
<path fill-rule="evenodd" clip-rule="evenodd" d="M80.418 25.6784C77.6364 25.6784 75.3817 27.7889 75.3817 30.6999C75.3817 33.5845 77.6512 35.7215 80.418 35.7215C83.1996 35.7215 85.4543 33.5963 85.4543 30.6999C85.4543 27.7889 83.1996 25.6784 80.418 25.6784ZM80.418 33.7317C78.8962 33.7317 77.5864 32.4719 77.5864 30.6882C77.5864 28.8779 78.8992 27.6446 80.418 27.6446C81.9398 27.6446 83.2496 28.8779 83.2496 30.6882C83.2526 32.4837 81.9398 33.7317 80.418 33.7317ZM69.4301 25.6784C66.6485 25.6784 64.3938 27.7889 64.3938 30.6999C64.3938 33.5845 66.6632 35.7215 69.4301 35.7215C72.2116 35.7215 74.4663 33.5963 74.4663 30.6999C74.4663 27.7889 72.2087 25.6784 69.4301 25.6784ZM69.4301 33.7317C67.9083 33.7317 66.5985 32.4719 66.5985 30.6882C66.5985 28.8779 67.9113 27.6446 69.4301 27.6446C70.9518 27.6446 72.2617 28.8779 72.2617 30.6882C72.2617 32.4837 70.9518 33.7317 69.4301 33.7317ZM56.3552 27.2119V29.3371H61.4563C61.3003 30.5292 60.9058 31.4093 60.3024 32.0127C59.5548 32.7603 58.4009 33.5727 56.367 33.5727C53.2322 33.5727 50.7803 31.0414 50.7803 27.9066C50.7803 24.7718 53.2322 22.2405 56.367 22.2405C58.0595 22.2405 59.2928 22.9086 60.2082 23.7622L61.7153 22.2552C60.4437 21.0366 58.7512 20.1035 56.3788 20.1035C52.0784 20.1035 48.4697 23.6062 48.4697 27.8948C48.4697 32.1952 52.0755 35.6861 56.3788 35.6861C58.7012 35.6861 60.4437 34.9267 61.8212 33.4962C63.2253 32.0922 63.6697 30.1112 63.6697 28.5129C63.6697 28.0155 63.6315 27.5681 63.552 27.1884H56.3523C56.3552 27.1855 56.3552 27.2119 56.3552 27.2119ZM109.835 28.8662C109.414 27.7388 108.142 25.6666 105.535 25.6666C102.95 25.6666 100.801 27.7006 100.801 30.6882C100.801 33.508 102.927 35.7097 105.785 35.7097C108.081 35.7097 109.417 34.3057 109.967 33.4815L108.263 32.3394C107.698 33.1783 106.912 33.7287 105.796 33.7287C104.669 33.7287 103.88 33.2166 103.356 32.207L110.07 29.4254C110.07 29.4284 109.835 28.8662 109.835 28.8662ZM102.988 30.5439C102.935 28.6042 104.495 27.6181 105.611 27.6181C106.491 27.6181 107.224 28.0508 107.474 28.6807L102.988 30.5439ZM97.5342 35.4094H99.7388V20.6569H97.5342V35.4094ZM93.9138 26.794H93.8343C93.3368 26.2023 92.392 25.6666 91.1852 25.6666C88.6803 25.6666 86.3726 27.8713 86.3726 30.7029C86.3726 33.5227 88.6685 35.7009 91.1852 35.7009C92.3773 35.7009 93.3368 35.1622 93.8343 34.5588H93.9138V35.2799C93.9138 37.1961 92.8894 38.2293 91.2381 38.2293C89.8871 38.2293 89.0482 37.2579 88.7068 36.4455L86.7906 37.2462C87.341 38.5707 88.8098 40.2102 91.2352 40.2102C93.8196 40.2102 96.0095 38.6885 96.0095 34.9768V25.9669H93.9255V26.794C93.9285 26.794 93.9138 26.794 93.9138 26.794ZM91.3824 33.7317C89.8606 33.7317 88.589 32.4601 88.589 30.7029C88.589 28.9309 89.8606 27.6476 91.3824 27.6476C92.8894 27.6476 94.058 28.9456 94.058 30.7029C94.0727 32.4601 92.8924 33.7317 91.3824 33.7317ZM120.158 20.6569H114.886V35.4094H117.091V29.8228H120.161C122.601 29.8228 125 28.0538 125 25.2457C125 22.4377 122.61 20.6569 120.158 20.6569ZM120.222 27.7624H117.088V22.6996H120.222C121.874 22.6996 122.807 24.0625 122.807 25.231C122.807 26.3878 121.862 27.7624 120.222 27.7624ZM133.836 25.6519C132.235 25.6519 130.583 26.3613 129.9 27.9066L131.855 28.719C132.276 27.9066 133.047 27.6299 133.862 27.6299C135.004 27.6299 136.158 28.3128 136.185 29.5314V29.6874C135.79 29.4637 134.925 29.1222 133.889 29.1222C131.778 29.1222 129.638 30.2761 129.638 32.4395C129.638 34.4205 131.369 35.692 133.297 35.692C134.778 35.692 135.593 35.0239 136.102 34.2497H136.182V35.3918H138.307V29.7404C138.307 27.1089 136.352 25.6519 133.836 25.6519ZM133.559 33.7317C132.838 33.7317 131.828 33.3785 131.828 32.4719C131.828 31.3298 133.088 30.8971 134.163 30.8971C135.134 30.8971 135.593 31.1061 136.17 31.3946C136.011 32.7191 134.893 33.7199 133.559 33.7317ZM146.06 25.9669L143.529 32.3659H143.449L140.827 25.9669H138.454L142.39 34.912L140.147 39.8835H142.443L148.497 25.9669H146.06ZM126.215 35.4094H128.42V20.6569H126.215V35.4094Z" fill="white"/>
<path fill-rule="evenodd" clip-rule="evenodd" d="M12.316 8.89197C11.9746 9.2599 11.7773 9.8221 11.7773 10.558V36.6575C11.7773 37.3934 11.9746 37.9556 12.3278 38.3088L12.419 38.3883L27.0421 23.7652V23.4385L12.4072 8.8125L12.316 8.89197Z" fill="url(#paint0_linear)"/>
<path fill-rule="evenodd" clip-rule="evenodd" d="M31.9076 28.6546L27.0303 23.7773V23.4359L31.9076 18.5586L32.0136 18.6233L37.7827 21.9024C39.434 22.8325 39.434 24.369 37.7827 25.3109L32.0136 28.5899L31.9076 28.6546Z" fill="url(#paint1_linear)"/>
<path fill-rule="evenodd" clip-rule="evenodd" d="M32.013 28.5897L27.0297 23.6064L12.3154 38.3207C12.8541 38.8977 13.7577 38.9624 14.7673 38.4002L32.013 28.5897Z" fill="url(#paint2_linear)"/>
<path fill-rule="evenodd" clip-rule="evenodd" d="M32.013 18.6234L14.7673 8.82761C13.7577 8.2507 12.8511 8.33017 12.3154 8.90709L27.0297 23.6067L32.013 18.6234Z" fill="url(#paint3_linear)"/>
<path opacity="0.2" fill-rule="evenodd" clip-rule="evenodd" d="M31.9071 28.4834L14.7791 38.2145C13.8224 38.7649 12.9688 38.7266 12.4184 38.2262L12.3271 38.3175L12.4184 38.397C12.9688 38.8944 13.8224 38.9356 14.7791 38.3852L32.0248 28.5894L31.9071 28.4834Z" fill="black"/>
<path opacity="0.12" fill-rule="evenodd" clip-rule="evenodd" d="M37.7824 25.14L31.8926 28.4837L31.9985 28.5897L37.7677 25.3107C38.5948 24.8398 39.001 24.2216 39.001 23.6064C38.951 24.1716 38.5301 24.7073 37.7824 25.14Z" fill="black"/>
<path opacity="0.25" fill-rule="evenodd" clip-rule="evenodd" d="M14.7679 8.9981L37.7827 22.0729C38.5304 22.4938 38.9513 23.0442 39.016 23.6064C39.016 22.9913 38.6098 22.3731 37.7827 21.9022L14.7679 8.82738C13.1166 7.88254 11.7773 8.67138 11.7773 10.5581V10.7289C11.7773 8.83916 13.1166 8.06503 14.7679 8.9981Z" fill="white"/>
</g>
<defs>
<linearGradient id="paint0_linear" x1="25.7304" y1="10.2764" x2="2.3068" y2="16.5176" gradientUnits="userSpaceOnUse">
<stop stop-color="#00A0FF"/>
<stop offset="0.00657" stop-color="#00A1FF"/>
<stop offset="0.2601" stop-color="#00BEFF"/>
<stop offset="0.5122" stop-color="#00D2FF"/>
<stop offset="0.7604" stop-color="#00DFFF"/>
<stop offset="1" stop-color="#00E3FF"/>
</linearGradient>
<linearGradient id="paint1_linear" x1="39.9362" y1="23.6067" x2="11.3759" y2="23.6067" gradientUnits="userSpaceOnUse">
<stop stop-color="#FFE000"/>
<stop offset="0.4087" stop-color="#FFBD00"/>
<stop offset="0.7754" stop-color="#FFA500"/>
<stop offset="1" stop-color="#FF9C00"/>
</linearGradient>
<linearGradient id="paint2_linear" x1="29.3033" y1="26.3181" x2="10.4989" y2="57.9673" gradientUnits="userSpaceOnUse">
<stop stop-color="#FF3A44"/>
<stop offset="1" stop-color="#C31162"/>
</linearGradient>
<linearGradient id="paint3_linear" x1="8.61021" y1="0.211242" x2="16.9996" y2="14.3463" gradientUnits="userSpaceOnUse">
<stop stop-color="#32A071"/>
<stop offset="0.0685" stop-color="#2DA771"/>
<stop offset="0.4762" stop-color="#15CF74"/>
<stop offset="0.8009" stop-color="#06E775"/>
<stop offset="1" stop-color="#00F076"/>
</linearGradient>
<clipPath id="clip0">
<rect width="160" height="47.2129" fill="white"/>
</clipPath>
</defs>
</svg>
