<svg width="1063" height="198" viewBox="0 0 1063 198" fill="none" xmlns="http://www.w3.org/2000/svg">
<path d="M171.6 85.8H212.707C235.266 85.8 250.817 100.098 250.817 120.876C250.894 141.654 235.358 155.952 212.707 155.952H192.115V196.415H171.6V85.8ZM210.34 138.191C221.866 138.191 229.196 131.48 229.196 120.891C229.196 110.302 221.866 103.746 210.34 103.746H192.115V138.191H210.34Z" fill="white"/>
<path d="M251.048 156.599C251.048 132.743 268.72 115.828 293.646 115.828C318.571 115.828 334.83 131.557 334.123 156.368H270.134C270.457 171.543 280 181.332 293.646 181.332C305.801 181.332 314.714 174.144 315.652 163.863H335.767C334.507 184.256 317.065 198 294.107 198C268.474 198 251.033 180.701 251.033 156.599H251.048ZM313.208 142.377C310.058 134.713 303.112 130.449 293.492 130.449C283.872 130.449 276.527 134.959 272.9 142.377H313.208Z" fill="white"/>
<path d="M351.795 133.681H337.273V119.137L342.328 118.813C349.981 118.336 353.377 114.473 353.762 105.777L354.392 94.6342H371.28V117.397H391.473V133.681H371.28V196.414H351.795V133.681Z" fill="white"/>
<path d="M389.751 165.448H410.02C410.097 175.637 418.457 182.517 431.012 182.517C440.954 182.517 447.824 178.254 447.824 171.374C447.824 164.971 441.984 163.709 438.204 163.155L419.902 160.862C410.036 159.6 396.467 155.49 396.467 140.392C396.467 125.293 409.083 115.813 428.661 115.813C448.238 115.813 460.302 124.031 462.269 138.576H442.23C440.647 133.358 435.607 130.434 428.507 130.434C421.407 130.434 415.645 133.758 415.645 139.361C415.645 144.963 421.407 146.394 425.034 146.872L443.106 149.088C453.448 150.427 467.401 154.783 467.401 170.497C467.401 186.211 452.726 198 430.72 198C407.208 198 390.32 185.195 389.782 165.448H389.751Z" fill="white"/>
<path d="M566.826 176.791H550.291V196.415H529.776V176.791H476.944V160.292H477.098L530.084 85.8H550.307V158.061H566.842V176.807L566.826 176.791ZM529.792 158.045V116.705L500.425 158.045H529.792Z" fill="white"/>
<path d="M641.357 146.717H596.546V196.415H576.031V85.8H596.546V127.91H641.357V85.8H661.872V196.415H641.357V146.717Z" fill="white"/>
<path d="M671.108 156.906C671.108 132.958 689.333 115.813 714.889 115.813C740.444 115.813 758.669 132.958 758.669 156.906C758.669 180.855 740.444 198 714.889 198C689.333 198 671.108 180.855 671.108 156.906ZM714.889 181.163C728.78 181.163 738.877 170.974 738.877 156.906C738.877 142.839 728.78 132.65 714.889 132.65C700.997 132.65 690.977 142.839 690.977 156.906C690.977 170.974 700.997 181.163 714.889 181.163Z" fill="white"/>
<path d="M854.222 132.804C844.356 132.804 838.133 140.069 838.133 152.551V196.4H818.493V149.857C818.493 139.038 813.13 132.789 804.064 132.789C794.198 132.789 787.974 140.13 787.974 152.859V196.4H768.335V117.382H787.974V132.004H788.051C792.477 121.738 800.914 115.813 812.116 115.813C823.319 115.813 831.755 121.815 835.705 132.096C840.438 121.83 849.351 115.813 861.183 115.813C877.749 115.813 888.322 127.664 888.322 146.702V196.4H868.606V149.857C868.606 139.038 863.319 132.789 854.253 132.789L854.222 132.804Z" fill="white"/>
<path d="M896.282 156.599C896.282 132.743 913.954 115.828 938.88 115.828C963.805 115.828 980.063 131.557 979.357 156.368H915.368C915.691 171.543 925.234 181.332 938.88 181.332C951.035 181.332 959.948 174.144 960.885 163.863H981.001C979.741 184.256 962.299 198 939.341 198C913.708 198 896.267 180.701 896.267 156.599H896.282ZM958.442 142.377C955.292 134.713 948.346 130.449 938.726 130.449C929.106 130.449 921.761 134.959 918.134 142.377H958.442Z" fill="white"/>
<path d="M984.95 165.448H1005.22C1005.3 175.637 1013.66 182.517 1026.21 182.517C1036.15 182.517 1043.02 178.254 1043.02 171.374C1043.02 164.971 1037.18 163.709 1033.4 163.155L1015.1 160.862C1005.23 159.6 991.666 155.49 991.666 140.392C991.666 125.293 1004.28 115.813 1023.86 115.813C1043.44 115.813 1055.5 124.031 1057.47 138.576H1037.43C1035.85 133.358 1030.81 130.434 1023.71 130.434C1016.61 130.434 1010.84 133.758 1010.84 139.361C1010.84 144.963 1016.61 146.394 1020.23 146.872L1038.3 149.088C1048.65 150.427 1062.6 154.783 1062.6 170.497C1062.6 186.211 1047.92 198 1025.92 198C1002.41 198 985.519 185.195 984.981 165.448H984.95Z" fill="white"/>
<path d="M149.91 20.1785L129.786 0L100.747 29.1176L92.2385 20.5862C80.8988 9.21573 62.5171 9.21573 51.1774 20.5862L13.6301 58.2353C13.6301 58.6721 13.6447 67.2181 13.6301 81.5294C13.6301 97.6315 26.6396 110.691 42.6981 110.691H42.6545C34.6543 110.691 27.3946 113.937 22.1531 119.193L7.80783 104.809L6.80599 105.814C-2.26866 114.913 -2.26866 129.661 6.80599 138.76L13.6156 145.588V198H60.0779V157.235C60.0779 154.018 62.6768 151.412 65.8856 151.412C69.0944 151.412 71.6934 154.018 71.6934 157.235V198H118.156V93.1765L149.895 61.3509C161.235 49.9804 161.235 31.549 149.895 20.1785H149.91ZM60.0779 110.705V69.8969C60.0779 66.6794 62.6769 64.0734 65.8711 64.0734C69.0799 64.0734 71.6789 66.6794 71.6789 69.8969V110.72H60.0634L60.0779 110.705ZM83.5268 46.6028C80.318 46.6028 77.719 43.9968 77.719 40.7793C77.719 37.5618 80.318 34.9557 83.5268 34.9557C86.7356 34.9557 89.3346 37.5618 89.3346 40.7793C89.3346 43.9968 86.7356 46.6028 83.5268 46.6028Z" fill="white"/>
</svg>
