<svg width="26" height="32" viewBox="0 0 26 32" fill="none" xmlns="http://www.w3.org/2000/svg">
<path d="M24.6064 3.26118L21.3032 0L16.5367 4.70588L15.1402 3.32706C13.2788 1.48941 10.2617 1.48941 8.40034 3.32706L2.23727 9.41177C2.23727 9.48235 2.23965 10.8635 2.23727 13.1765C2.23727 15.7788 4.37265 17.8894 7.00852 17.8894H7.00137C5.68821 17.8894 4.49659 18.4141 3.63623 19.2635L1.28159 16.9388L1.11715 17.1012C-0.372382 18.5718 -0.372382 20.9553 1.11715 22.4259L2.23489 23.5294V32H9.86127V25.4118C9.86127 24.8918 10.2879 24.4706 10.8146 24.4706C11.3413 24.4706 11.7679 24.8918 11.7679 25.4118V32H19.3942V15.0588L24.604 9.91529C26.4653 8.07765 26.4653 5.09882 24.604 3.26118H24.6064ZM9.86127 17.8918V11.2965C9.86127 10.7765 10.2879 10.3553 10.8122 10.3553C11.3389 10.3553 11.7655 10.7765 11.7655 11.2965V17.8941H9.85888L9.86127 17.8918ZM13.7102 7.53177C13.1835 7.53177 12.7569 7.11059 12.7569 6.59059C12.7569 6.07059 13.1835 5.64941 13.7102 5.64941C14.2369 5.64941 14.6635 6.07059 14.6635 6.59059C14.6635 7.11059 14.2369 7.53177 13.7102 7.53177Z" fill="#0A6638"/>
</svg>
